<svg width="91" height="91" fill="none" xmlns="http://www.w3.org/2000/svg"><path d="M82.232 56.312l-8.036-11.877 8.036-11.877a2.19 2.19 0 00.248-1.917 2.173 2.173 0 00-1.37-1.36l-26.228-8.725a2.158 2.158 0 00-2.496.858L45.5 31.778l-6.886-10.364a2.157 2.157 0 00-2.497-.858L9.89 29.28a2.174 2.174 0 00-1.37 1.361 2.19 2.19 0 00.25 1.917l8.035 11.877-8.036 11.877a2.19 2.19 0 00-.248 1.917c.22.643.726 1.148 1.369 1.36l26.229 8.725a2.168 2.168 0 002.496-.858L45.5 57.09l6.886 10.365a2.168 2.168 0 002.496.858l26.229-8.724a2.174 2.174 0 001.37-1.361 2.191 2.191 0 00-.25-1.917zM45.5 50.862l-19.213-6.427L45.5 38.009l19.212 6.426L45.5 50.861z" fill="#000"/><path d="M56.732 72.495a6.804 6.804 0 01-7.82-2.681l-3.412-5.12-3.413 5.12a6.802 6.802 0 01-7.83 2.677l-18.26-6.086v13.248c0 .977.624 1.844 1.55 2.152l27.221 9.072a2.054 2.054 0 00.249.071h.002a2.312 2.312 0 001.21-.069l27.223-9.074a2.267 2.267 0 001.551-2.152V66.405l-18.271 6.09z" fill="#000"/><path d="M51.569 17.056c-.692-.692-.704-1.798-.029-2.473l7.334-7.334c.676-.676 1.782-.663 2.473.028.692.691.704 1.798.029 2.473l-7.334 7.334c-.676.676-1.782.663-2.473-.028z" fill="url(#paint0_linear_30_10748)"/><path d="M43.703 12.796V2.44a1.725 1.725 0 113.451 0v10.356a1.725 1.725 0 11-3.45 0z" fill="url(#paint1_linear_30_10748)"/><path d="M36.816 17.084L29.482 9.75c-.676-.675-.663-1.782.029-2.473.69-.691 1.797-.704 2.473-.028l7.334 7.334c.675.675.662 1.781-.029 2.473-.691.691-1.797.704-2.473.028z" fill="url(#paint2_linear_30_10748)"/><defs><linearGradient id="paint0_linear_30_10748" x1="55.207" y1="10.916" x2="57.709" y2="13.417" gradientUnits="userSpaceOnUse"><stop stop-color="#6A11CB"/><stop offset="1" stop-color="#2575FC"/></linearGradient><linearGradient id="paint1_linear_30_10748" x1="41.62" y1="3.809" x2="49.238" y2="11.427" gradientUnits="userSpaceOnUse"><stop stop-color="#6A11CB"/><stop offset="1" stop-color="#2575FC"/></linearGradient><linearGradient id="paint2_linear_30_10748" x1="29.511" y1="7.277" x2="39.289" y2="17.056" gradientUnits="userSpaceOnUse"><stop stop-color="#6A11CB"/><stop offset="1" stop-color="#2575FC"/></linearGradient></defs></svg>