<svg width="91" height="91" fill="none" xmlns="http://www.w3.org/2000/svg"><path d="M47.18 37.944v3.698c0 1.175.236 2.16.699 2.928.638 1.06 1.687 1.666 2.877 1.666 1.166 0 2.325-.567 3.444-1.686l12.216-12.214a6.885 6.885 0 000-9.727L54.2 10.396c-1.119-1.12-2.278-1.687-3.444-1.687-1.78 0-3.575 1.42-3.575 4.594v3.358c-17.343 1.024-31.7 14.332-33.835 31.754a2.154 2.154 0 003.878 1.535c5.724-7.819 14.914-12.487 24.582-12.487 1.792 0 3.594.162 5.375.481z" fill="url(#paint0_linear_30_10807)"/><path d="M76.307 40.32a2.155 2.155 0 00-2.532.73c-5.723 7.819-14.913 12.487-24.582 12.487-1.79 0-3.593-.162-5.374-.481v-3.698c0-3.173-1.796-4.594-3.575-4.594-1.166 0-2.325.568-3.445 1.687L24.583 58.664a6.886 6.886 0 000 9.727L36.8 80.604c1.12 1.12 2.279 1.687 3.445 1.687 1.78 0 3.575-1.42 3.575-4.594v-3.358c17.344-1.024 31.701-14.332 33.835-31.754a2.154 2.154 0 00-1.347-2.265z" fill="#000"/><defs><linearGradient id="paint0_linear_30_10807" x1="13.33" y1="29.77" x2="68.428" y2="29.77" gradientUnits="userSpaceOnUse"><stop stop-color="#6A11CB"/><stop offset="1" stop-color="#2575FC"/></linearGradient></defs></svg>