<svg width="91" height="91" fill="none" xmlns="http://www.w3.org/2000/svg"><path d="M67.436 83.713a5.912 5.912 0 00-.895-4.913l-10.91-15.475 6.155-8.498A1.49 1.49 0 0163 54.21c.458 0 .915.206 1.214.618l19.214 26.525c.713.985.006 2.36-1.215 2.36H67.436z" fill="#000"/><path d="M37.126 38.924v-7.8h18.689c.814 0 1.564-.44 1.96-1.149a2.228 2.228 0 00-.056-2.266l-3.914-6.268 3.914-6.27c.43-.688.451-1.555.056-2.265a2.244 2.244 0 00-1.96-1.15H37.126V9.523a2.239 2.239 0 00-2.242-2.235c-1.239 0-2.243 1-2.243 2.235v29.402c1.282-1.403 3.174-1.43 4.485 0z" fill="url(#paint0_linear_30_10766)"/><path d="M22.99 59.363l5.352 4.99a2.24 2.24 0 003.057-.001l3.882-3.618 3.882 3.618a2.241 2.241 0 003.056 0l5.352-4.989L63 81.36c.695.99-.014 2.354-1.224 2.354H8.784c-1.21 0-1.918-1.363-1.223-2.354l15.428-21.996z" fill="#000"/><path d="M40.667 59.719l-3.864-3.62a2.223 2.223 0 00-3.044-.001l-3.865 3.62-4.3-3.936 8.468-12.133a1.476 1.476 0 011.218-.637c.461 0 .922.212 1.218.637l8.469 12.133-4.3 3.937z" fill="#000"/><defs><linearGradient id="paint0_linear_30_10766" x1="32.641" y1="23.105" x2="58.057" y2="23.105" gradientUnits="userSpaceOnUse"><stop stop-color="#6A11CB"/><stop offset="1" stop-color="#2575FC"/></linearGradient></defs></svg>