<svg width="92" height="91" fill="none" xmlns="http://www.w3.org/2000/svg"><path d="M47.109 53.498c4.123 0 7.465-3.302 7.465-7.376s-3.342-7.376-7.465-7.376c-4.123 0-7.465 3.302-7.465 7.376s3.342 7.376 7.465 7.376z" fill="#000"/><path d="M83.586 37.816a4.711 4.711 0 00-6.665 0L57.538 57.208c-.589.59-1.388.92-2.221.92H38.901a3.14 3.14 0 01-2.222-.92L17.296 37.816a4.711 4.711 0 00-6.664 0 4.716 4.716 0 000 6.668l22.34 22.349v16.426l28.275.098V66.833l22.34-22.35a4.716 4.716 0 00-.001-6.667z" fill="#000"/><path d="M39.302 24.024l-1.104 6.439a2.222 2.222 0 003.22 2.34l5.78-3.04 5.779 3.04a2.218 2.218 0 003.22-2.34l-1.104-6.438 4.676-4.56a2.22 2.22 0 00-1.23-3.787l-6.461-.94-2.89-5.858a2.219 2.219 0 00-3.98 0l-2.89 5.858-6.461.94a2.219 2.219 0 00-1.23 3.787l4.675 4.56z" fill="url(#paint0_linear_30_10817)"/><defs><linearGradient id="paint0_linear_30_10817" x1="33.956" y1="20.351" x2="60.439" y2="20.351" gradientUnits="userSpaceOnUse"><stop stop-color="#6A11CB"/><stop offset="1" stop-color="#2575FC"/></linearGradient></defs></svg>