<svg width="24" height="24" fill="none" xmlns="http://www.w3.org/2000/svg"><path d="M11.626 22.56C5.194 13.505 4 12.577 4 9.25 4 4.693 7.805 1 12.5 1S21 4.693 21 9.25c0 3.327-1.194 4.253-7.626 13.306a1.053 1.053 0 01-.38.326 1.09 1.09 0 01-.984.002 1.055 1.055 0 01-.38-.324l-.003-.003v.003zm.874-9.872c.94 0 1.84-.363 2.504-1.007a3.387 3.387 0 001.038-2.43 3.39 3.39 0 00-1.038-2.432A3.597 3.597 0 0012.5 5.813c-.94 0-1.84.362-2.504 1.006A3.387 3.387 0 008.958 9.25c0 .912.373 1.786 1.038 2.43a3.597 3.597 0 002.504 1.008z" fill="url(#paint0_linear_30_10730)"/><defs><linearGradient id="paint0_linear_30_10730" x1="4" y1="12" x2="21" y2="12" gradientUnits="userSpaceOnUse"><stop stop-color="#6A11CB"/><stop offset="1" stop-color="#2575FC"/></linearGradient></defs></svg>