<svg width="24" height="24" fill="none" xmlns="http://www.w3.org/2000/svg"><path d="M17.4 22A15.42 15.42 0 012 6.6 4.6 4.6 0 016.6 2a3.94 3.94 0 01.77.07c.245.036.486.097.72.18a1 1 0 01.65.75l1.37 6a1 1 0 01-.26.92c-.13.14-.14.15-1.37.79a9.91 9.91 0 004.87 4.89c.65-1.24.66-1.25.8-1.38a1 1 0 01.92-.26l6 1.37a1.001 1.001 0 01.72.65 4.338 4.338 0 01.25 1.49A4.6 4.6 0 0117.4 22z" fill="url(#paint0_linear_30_10735)"/><defs><linearGradient id="paint0_linear_30_10735" x1="2" y1="12" x2="22.04" y2="12" gradientUnits="userSpaceOnUse"><stop stop-color="#6A11CB"/><stop offset="1" stop-color="#2575FC"/></linearGradient></defs></svg>