<svg width="92" height="91" fill="none" xmlns="http://www.w3.org/2000/svg"><path d="M58.013 41.553c-.829-2.982-3.478-5.066-6.442-5.066a7.653 7.653 0 00-4.551 1.511 7.653 7.653 0 00-4.55-1.511c-2.963 0-5.607 2.073-6.434 5.044-.658 2.367-1.02 8.58 9.808 15.109l1.176.709 1.173-.71c10.836-6.526 10.478-12.723 9.82-15.086z" fill="url(#paint0_linear_30_10783)"/><path d="M49.296 25.34V6.87c-.758-.045-1.508-.116-2.276-.116-.768 0-1.518.07-2.275.115v18.47c.757-.085 1.496-.23 2.275-.23.78 0 1.519.145 2.276.23zM67.27 43.313c.085.757.23 1.497.23 2.276 0 .779-.145 1.518-.23 2.275h18.47c.044-.757.115-1.507.115-2.275s-.07-1.518-.115-2.276H67.27zM53.847 7.394v18.974a20.451 20.451 0 0112.395 12.395h18.973c-2.84-15.86-15.508-28.528-31.368-31.369zM40.193 26.368V7.394c-15.86 2.84-28.527 15.508-31.368 31.369H27.8a20.451 20.451 0 0112.394-12.395zM26.77 47.864c-.085-.757-.23-1.496-.23-2.275 0-.78.145-1.519.23-2.276H8.3c-.044.758-.115 1.508-.115 2.276 0 .768.07 1.518.115 2.275h18.47zm39.472 4.551A20.452 20.452 0 0153.847 64.81v18.974c15.86-2.841 28.527-15.509 31.368-31.369H66.242zM49.296 65.838c-.757.085-1.497.23-2.276.23-.779 0-1.518-.145-2.275-.23v18.47c.757.045 1.507.116 2.275.116s1.518-.071 2.276-.116v-18.47zm-9.103 17.946V64.81A20.452 20.452 0 0127.8 52.415H8.825c2.84 15.86 15.508 28.528 31.368 31.369z" fill="#000"/><defs><linearGradient id="paint0_linear_30_10783" x1="35.761" y1="46.918" x2="58.288" y2="46.918" gradientUnits="userSpaceOnUse"><stop stop-color="#6A11CB"/><stop offset="1" stop-color="#2575FC"/></linearGradient></defs></svg>