<svg width="35" height="25" fill="none" xmlns="http://www.w3.org/2000/svg"><path d="M7.684 8.839c1.512 0 2.991.453 4.249 1.303a7.717 7.717 0 012.817 3.471 7.814 7.814 0 01.435 4.469 7.76 7.76 0 01-2.093 3.96 7.622 7.622 0 01-3.916 2.116 7.57 7.57 0 01-4.42-.44 7.667 7.667 0 01-3.432-2.849 7.795 7.795 0 01-1.289-4.296L0 15.468A15.56 15.56 0 014.48 4.53C7.35 1.63 11.24 0 15.297 0v4.42a10.757 10.757 0 00-4.184.835 10.854 10.854 0 00-3.543 2.4c-.394.397-.757.824-1.086 1.277a7.661 7.661 0 011.197-.095l.003.002zm19.667 0c1.513 0 2.992.453 4.25 1.303a7.716 7.716 0 012.817 3.471 7.814 7.814 0 01.435 4.469 7.76 7.76 0 01-2.093 3.96 7.623 7.623 0 01-3.916 2.116 7.57 7.57 0 01-4.42-.44 7.668 7.668 0 01-3.432-2.849 7.796 7.796 0 01-1.29-4.296l-.034-1.105c0-4.102 1.611-8.037 4.48-10.938C27.018 1.63 30.908 0 34.965 0v4.42a10.757 10.757 0 00-4.184.835 10.854 10.854 0 00-3.543 2.4c-.394.397-.757.824-1.086 1.277a7.666 7.666 0 011.2-.095v.002z" fill="url(#paint0_linear_30_10875)"/><defs><linearGradient id="paint0_linear_30_10875" x1="0" y1="12.153" x2="35" y2="12.153" gradientUnits="userSpaceOnUse"><stop stop-color="#6A11CB"/><stop offset="1" stop-color="#2575FC"/></linearGradient></defs></svg>