<svg width="218" height="63" fill="none" xmlns="http://www.w3.org/2000/svg"><path fill-rule="evenodd" clip-rule="evenodd" d="M15.8 39.5V52l9.9-6.9-9.9-5.6z" fill="#C5D8F0"/><path fill-rule="evenodd" clip-rule="evenodd" d="M35.4 50.8l9.9-5.7-9.7-5.7-9.9 5.7-9.8 5.7h-.1v11.3l9.7-5.6 9.9-5.7z" fill="url(#paint0_linear_67_8222)"/><path fill-rule="evenodd" clip-rule="evenodd" d="M35.6 39.4l.2.1 9.5 5.6V33.7l-11.9-7.1-9.9 5.7 12.1 7.1z" fill="url(#paint1_linear_67_8222)"/><path fill-rule="evenodd" clip-rule="evenodd" d="M16.5 5.7c6.7 4 12.7 7.6 19.4 11.5l9.4-5.4v-.5L36 5.8l-2.9-1.7L26.3 0l-9.8 5.7z" fill="url(#paint2_linear_67_8222)"/><path fill-rule="evenodd" clip-rule="evenodd" d="M15.8 17.5v11.3l9.7-5.6-9.7-5.7z" fill="#C5D8F0"/><path fill-rule="evenodd" clip-rule="evenodd" d="M6.2 42.7l-.2.2v13.6l6.3 3.6 3.5 2.1V38.3l-9.6 4.4z" fill="url(#paint3_linear_67_8222)"/><path fill-rule="evenodd" clip-rule="evenodd" d="M6.3 36.1l9.5-6.7V15.8l-9.3 6.5-.5.3v13.3l.3.2z" fill="url(#paint4_linear_67_8222)"/><path fill-rule="evenodd" clip-rule="evenodd" d="M0 26.5l7.2-4.1 18.9-10.9-9.7-5.8-8.6 4.9-.7.4L0 15.3v11.2z" fill="url(#paint5_linear_67_8222)"/><path fill-rule="evenodd" clip-rule="evenodd" d="M25.9 33.7l9.9-5.7 9.5-5.5V11.2L36 16.6l-9.9 5.7-9.9 5.7-.3.2-6.2 3.6-3.3 1.9-.4.2-5.9 3.4H0v11.3l6-3.4.1-.1 3.5-2 6.2-3.6.1-.1 10-5.7z" fill="url(#paint6_linear_67_8222)"/><path fill-rule="evenodd" clip-rule="evenodd" d="M56.8 45.1V33.3c0-4.9 2.5-7.3 6.1-7.3.8 0 1.6.1 2.3.3v-4.7c-.6-.2-1.4-.3-2.1-.3-3 0-5.2 1.3-6.6 3.9v-3.3H52v23.2h4.8zm22-3.7c-2.2 0-4-.8-5.4-2.3-1.4-1.5-2.1-3.4-2.1-5.6 0-2.2.7-4.1 2.1-5.5 1.4-1.5 3.2-2.3 5.4-2.3s4 .8 5.4 2.3c1.4 1.4 2.1 3.3 2.1 5.5s-.7 4.1-2.1 5.6c-1.4 1.5-3.2 2.3-5.4 2.3zm7.3-16.2c-2.1-2.5-4.7-3.8-7.9-3.8-3.4 0-6.1 1.1-8.3 3.4-2.2 2.3-3.3 5.1-3.3 8.7 0 3.6 1.1 6.4 3.3 8.8 2.2 2.3 4.9 3.5 8.3 3.5 3.2 0 5.8-1.2 7.9-3.7v3.2h4.6V21.9h-4.6v3.3zm14.7-3.3h-4.7v23.2h4.7V21.9zm10.9 23.2V32.4c0-4 2.5-6.7 6-6.7 3.3 0 5.6 2.4 5.6 6.7v12.8h4.8V31c0-3.1-1-5.5-2.7-7.1-1.8-1.7-3.9-2.5-6.5-2.5-3.4 0-6 1.5-7.4 3.9V22h-4.6v23.2h4.8v-.1zm30.3 0l5.9-16.5 6 16.5h4.1l7.8-23.2h-5l-5 16.7-6.2-16.7h-3.4l-6 16.7-5.2-16.7h-5l8 23.2h4zm37.3-3.7c-2.2 0-4.1-.8-5.4-2.3-1.4-1.5-2.1-3.4-2.1-5.6 0-2.2.7-4.1 2.1-5.5 1.4-1.5 3.2-2.3 5.4-2.3s3.9.8 5.4 2.3c1.4 1.4 2.1 3.3 2.1 5.5s-.7 4.1-2.1 5.6c-1.4 1.5-3.2 2.3-5.4 2.3zm7.2-16.2c-2.1-2.5-4.7-3.8-7.9-3.8-3.3 0-6.1 1.1-8.3 3.4-2.2 2.3-3.3 5.1-3.3 8.7 0 3.6 1.1 6.4 3.3 8.8 2.2 2.3 5 3.5 8.3 3.5 3.2 0 5.8-1.2 7.9-3.7v3.2h4.6V21.9h-4.6v3.3zm14.4 28.9h5l.5-1.3 10.9-30.9h-5l-5.8 16.3-7-16.3H194l10.2 22.7-3.3 9.5z" fill="#000"/><path fill-rule="evenodd" clip-rule="evenodd" d="M98.5 18.9c1.8 0 3.2-1.4 3.2-3.2 0-1.8-1.4-3.2-3.2-3.2-1.9 0-3.2 1.4-3.2 3.2 0 1.8 1.3 3.2 3.2 3.2z" fill="url(#paint7_linear_67_8222)"/><path d="M53.7 57.3h.7v-4.9H56v-.7h-4v.7h1.6v4.9h.1zm4.5.1c.6 0 1.1-.3 1.3-.8v.6h.8v-4.5h-.8v2.5c0 .8-.4 1.4-1.2 1.4-.8 0-1.2-.5-1.2-1.4v-2.5h-.7v2.5c-.1 1.5.6 2.2 1.8 2.2zm3.3-.1h.8v-2.5c0-.9.4-1.2 1-1.2.3 0 .5.1.7.2l.3-.7c-.2-.1-.5-.3-.8-.3-.5 0-1 .3-1.2.7v-.6h-.8v4.4zm3.6 0h.7v-2.5c0-.8.6-1.4 1.4-1.4.9 0 1.4.5 1.4 1.4v2.5h.7v-2.5c0-1.3-.7-2.1-1.9-2.1-.6 0-1.2.3-1.5.8v-.7h-.7l-.1 4.5zm7.9 0h.8v-5.6H73v5.6zm4.1.1c.3 0 .6-.1 1-.3.3-.1.5-.3.7-.6v.8h.8v-5.7h-.8v1.9c-.3-.5-1-.8-1.6-.8-1.2 0-2.3 1-2.3 2.3-.1 1.4.9 2.4 2.2 2.4zm0-.7c-.9 0-1.6-.8-1.6-1.7 0-.9.7-1.6 1.6-1.6 1 0 1.6.8 1.6 1.6.1 1-.6 1.7-1.6 1.7zm5.8.7c1 0 1.7-.5 2.1-1.3l-.6-.3c-.3.6-.8 1-1.5 1-1 0-1.6-.5-1.7-1.4h4V55c0-1.4-1-2.3-2.3-2.3-1.3 0-2.3 1-2.3 2.4-.1 1.3.9 2.3 2.3 2.3zm-.1-4c.9 0 1.4.5 1.6 1.3h-3.2c.3-.8.9-1.3 1.6-1.3zm5.5 4c.3 0 .6-.1 1-.3.3-.1.5-.3.7-.6v.8h.8v-4.5H90v.7c-.3-.5-1-.8-1.6-.8-1.2 0-2.3 1-2.3 2.3 0 1.4 1 2.4 2.2 2.4zm.1-.7c-.9 0-1.6-.8-1.6-1.7 0-.9.8-1.6 1.6-1.6 1 0 1.6.8 1.6 1.6.1 1-.6 1.7-1.6 1.7zm5.1.7c1.2 0 1.8-.8 1.8-1.4 0-.9-.8-1.1-1.6-1.3-.6-.1-1.2-.3-1.2-.7 0-.3.3-.7 1-.7.5 0 .8.2 1.1.5l.6-.4c-.4-.5-1-.8-1.7-.8-1 0-1.7.6-1.7 1.3 0 .9.8 1.1 1.6 1.3.6.1 1.2.3 1.2.7 0 .4-.3.8-1 .8-.5 0-1-.3-1.2-.7l-.7.4c.3.7 1 1 1.8 1zm5.3-.1h.8v-5.6h-.8v5.6zm2 0h.7v-2.5c0-.8.6-1.4 1.4-1.4.9 0 1.3.5 1.3 1.4v2.5h.8v-2.5c0-1.3-.8-2.1-1.9-2.1-.7 0-1.2.3-1.6.8v-.7h-.7v4.5zm4.9-3.9h.8v2.1c0 1.4.3 1.7 1.6 1.7h.1v-.7c-.9 0-1.1-.1-1.1-1v-2.1h1.1v-.6h-1.1v-1.4l-.7.5v.9h-.8v.6h.1zm5.6 4c1.3 0 2.3-1 2.3-2.4 0-1.3-1-2.3-2.3-2.3-1.3 0-2.3 1-2.3 2.3 0 1.4 1 2.4 2.3 2.4zm0-.7c-.9 0-1.6-.8-1.6-1.7 0-.9.7-1.6 1.6-1.6.9 0 1.6.8 1.6 1.6.1 1-.7 1.7-1.6 1.7zm5.9.6h.8v-1.9h1.2l1.1 1.9h.8l-1.2-2.1c.7-.3 1.2-.9 1.2-1.6 0-1-.8-1.9-2-1.9h-1.8v5.6h-.1zm1.7-5c.8 0 1.3.5 1.3 1.2 0 .5-.4 1.2-1.3 1.2h-1v-2.3l1-.1zm5.1 5.1c1 0 1.7-.5 2.1-1.3l-.6-.3c-.3.6-.8 1-1.5 1-.9 0-1.6-.5-1.6-1.4h3.9V55c0-1.4-1-2.3-2.3-2.3-1.3 0-2.3 1-2.3 2.4-.1 1.3.9 2.3 2.3 2.3zm0-4c.9 0 1.4.5 1.6 1.3h-3.2c.2-.8.8-1.3 1.6-1.3zm5.5 4c.3 0 .6-.1 1-.3.3-.1.5-.3.7-.6v.8h.8v-4.5h-.8v.7c-.3-.5-1-.8-1.6-.8-1.2 0-2.3 1-2.3 2.3-.1 1.4.9 2.4 2.2 2.4zm0-.7c-.9 0-1.6-.8-1.6-1.7 0-.9.7-1.6 1.6-1.6 1 0 1.6.8 1.6 1.6.1 1-.6 1.7-1.6 1.7zm3.6.6h.8v-5.7h-.8v5.7zm4.4 0h3.1v-.7h-2.3v-4.9h-.8v5.6zm4.2 0h.8v-4.5h-.8v4.5zm-.2-5.6c0 .3.2.5.5.5s.5-.2.5-.5-.1-.5-.5-.5c-.3 0-.5.2-.5.5zm1.9 1.7h.8v3.8h.8v-3.8h1v-.6h-1v-.1c0-1 .1-1.1 1-1.1V51h-.1c-1.3 0-1.7.4-1.7 1.8v.1h-.8v.5zm5.5 4c1 0 1.7-.5 2.1-1.3l-.6-.3c-.3.6-.8 1-1.5 1-.9 0-1.6-.5-1.6-1.4h3.9V55c0-1.4-1-2.3-2.3-2.3-1.3 0-2.3 1-2.3 2.4-.1 1.3.8 2.3 2.3 2.3zm-.1-4c.9 0 1.4.5 1.6 1.3h-3.2c.2-.8.9-1.3 1.6-1.3zm5.9 3.9h.8v-1.7h1c1.2 0 2.1-.8 2.1-1.9 0-1.1-.8-2-2.1-2h-1.8v5.6zm1.7-5c.8 0 1.3.5 1.3 1.3 0 .7-.5 1.2-1.3 1.2h-1v-2.5h1zm3.1 5h.8v-2.5c0-.9.4-1.2 1-1.2.3 0 .5.1.7.2l.3-.7c-.3-.1-.5-.3-.9-.3-.5 0-1 .3-1.2.7v-.6h-.8v4.4h.1zm5.6.1c1.3 0 2.3-1 2.3-2.4 0-1.3-1-2.3-2.3-2.3-1.3 0-2.3 1-2.3 2.3 0 1.4 1 2.4 2.3 2.4zm0-.7c-.9 0-1.6-.8-1.6-1.7 0-.9.7-1.6 1.6-1.6.9 0 1.6.8 1.6 1.6 0 1-.7 1.7-1.6 1.7zm5.6.7c.3 0 .6-.1.9-.3.3-.1.6-.3.8-.6v.8h.8v-5.7h-.8v1.9c-.3-.5-1-.8-1.6-.8-1.3 0-2.3 1-2.3 2.3-.2 1.4.8 2.4 2.2 2.4zm0-.7c-.9 0-1.6-.8-1.6-1.7 0-.9.8-1.6 1.6-1.6.9 0 1.6.8 1.6 1.6.1 1-.7 1.7-1.6 1.7zm5.4.7c.6 0 1.1-.3 1.4-.8v.6h.7v-4.5h-.7v2.5c0 .8-.5 1.4-1.2 1.4-.9 0-1.2-.5-1.2-1.4v-2.5h-.8v2.5c-.1 1.5.6 2.2 1.8 2.2zm5.5 0c1 0 1.8-.6 2.1-1.4l-.6-.3c-.3.5-.8 1-1.5 1-1 0-1.6-.8-1.6-1.7 0-.9.7-1.6 1.6-1.6.7 0 1.2.3 1.4 1l.7-.3c-.3-.8-1.2-1.4-2.1-1.4-1.3 0-2.4 1-2.4 2.3 0 1.3 1 2.4 2.4 2.4zm2.8-4h.8v2.1c0 1.4.4 1.7 1.7 1.7h.1v-.7c-.9 0-1-.1-1-1v-2.1h1v-.6h-1v-1.4l-.8.5v.9h-.8v.6zm5.2 4c1.2 0 1.8-.8 1.8-1.4 0-.9-.8-1.1-1.6-1.3-.6-.1-1.2-.3-1.2-.7 0-.3.3-.7 1-.7.5 0 .8.2 1.1.5l.6-.4c-.4-.5-1-.8-1.7-.8-1 0-1.6.6-1.6 1.3 0 .9.8 1.1 1.5 1.3.6.1 1.2.3 1.2.7 0 .4-.3.8-1 .8-.5 0-1-.3-1.2-.7l-.6.4c.2.7.9 1 1.7 1z" fill="#373435"/><defs><linearGradient id="paint0_linear_67_8222" x1="42" y1="37.5" x2="10.5" y2="56.5" gradientUnits="userSpaceOnUse"><stop offset=".133" stop-color="#1B9DFC"/><stop offset=".736" stop-color="#495AFF"/></linearGradient><linearGradient id="paint1_linear_67_8222" x1="26.5" y1="31" x2="46.5" y2="42.001" gradientUnits="userSpaceOnUse"><stop stop-color="#1B9DFC"/><stop offset="1" stop-color="#495AFF"/></linearGradient><linearGradient id="paint2_linear_67_8222" x1="25" y1="7.5" x2="53.5" y2="28" gradientUnits="userSpaceOnUse"><stop offset=".26" stop-color="#2575FC"/><stop offset="1" stop-color="#6A11CB"/></linearGradient><linearGradient id="paint3_linear_67_8222" x1="10" y1="67" x2="10" y2="24" gradientUnits="userSpaceOnUse"><stop stop-color="#2575FC"/><stop offset=".999" stop-color="#6A11CB"/></linearGradient><linearGradient id="paint4_linear_67_8222" x1="11" y1="52" x2="11" y2="17.5" gradientUnits="userSpaceOnUse"><stop offset=".318" stop-color="#6A11CB"/><stop offset="1" stop-color="#2575FC"/></linearGradient><linearGradient id="paint5_linear_67_8222" x1="-5.5" y1="27" x2="72" y2="-19" gradientUnits="userSpaceOnUse"><stop stop-color="#1B9DFC"/><stop offset="1" stop-color="#6A11CB"/></linearGradient><linearGradient id="paint6_linear_67_8222" x1="155.5" y1="-43" x2="-12" y2="49" gradientUnits="userSpaceOnUse"><stop stop-color="#6A11CB"/><stop offset="1" stop-color="#2575FC"/></linearGradient><linearGradient id="paint7_linear_67_8222" x1="95.3" y1="15.7" x2="101.7" y2="15.7" gradientUnits="userSpaceOnUse"><stop stop-color="#6A11CB"/><stop offset="1" stop-color="#2575FC"/></linearGradient></defs></svg>