<svg width="44" height="44" fill="none" xmlns="http://www.w3.org/2000/svg"><path d="M30.105 9.99h0c.166.171.278.327.278.499s-.112.325-.279.491c-.267.278-.536.553-.805.83-.536.55-1.072 1.1-1.6 1.66a.893.893 0 01-.702.286h-5.445V15.6c.01.049.03.095.06.136l.004.006.004.007 5.264 10.221.052-.137L30.105 9.99zm0 0c-.802-.82-1.604-1.64-2.395-2.479a.813.813 0 00-.29-.211l-.04.092.04-.092a.815.815 0 00-.353-.066h-5.869c-.134 0-.249.007-.345.027a.488.488 0 00-.246.121c-.129.126-.155.327-.155.587v7.415c-.004.158-.04.313-.107.456l-1.263 2.459a1005.1 1005.1 0 00-1.916 3.734l-1.99 3.882M30.105 9.99l-14.93 15.925m0 0a2.002 2.002 0 01-.117-.23v-.002c-.382-.879-.764-1.768-1.135-2.647h0l-.001-.002a3.063 3.063 0 01-.012-.025 1.108 1.108 0 00-.165-.286.471.471 0 00-.374-.158c-.17 0-.291.06-.381.156-.085.09-.138.21-.181.316a2089.5 2089.5 0 01-3.483 8.128 262.334 262.334 0 00-2.016 4.72c-.1.237-.107.461.006.63.112.17.323.252.585.252h28.14c.28 0 .512-.059.636-.225.127-.169.11-.406.005-.683 0 0 0 0 0 0l-6.164-16.415a.97.97 0 00-.177-.326.486.486 0 00-.376-.149.557.557 0 00-.392.14.883.883 0 00-.21.333v.002c-.81 2.143-1.618 4.273-2.427 6.39l-11.76.08zm11.958-13.422h0l1.76-1.827.256-.278c-.168-.156-.333-.31-.496-.464a77.21 77.21 0 00-1.542-1.42.703.703 0 00-.398-.161l.42 4.15zm0 0a.439.439 0 01-.275.135h-5.315v-4.3l5.59 4.165zm-6.087 4.44l9.626 18.754H19.535v0l-.014.001a.301.301 0 01-.33-.212h0l-.004-.01-3.327-8.061v-.002a.447.447 0 01-.001-.348 1846.46 1846.46 0 015.172-10.097l.015-.025zm6.583 10.258h0l.003-.006c.762-2.04 1.534-4.08 2.332-6.191l5.511 14.664-3.505.01a.231.231 0 01-.156-.114c-1.402-2.715-2.797-5.43-4.186-8.145a.27.27 0 01.001-.218zM8.66 35.657l4.74-11.135 4.74 11.136H8.66z" fill="#fff" stroke="#fff" stroke-width=".2"/><path d="M26.947 33.665l.032-.043-.018-.05a5.225 5.225 0 00-.191-.462h0v-.001L22 23.387a1.286 1.286 0 00-.14-.258.507.507 0 00-.326-.221.476.476 0 00-.375.09.566.566 0 00-.234.32.629.629 0 00.02.41h0l.002.003c.01.023.022.044.033.06l.013.021.017.027c.018.03.022.044.022.052v.023l.01.02a1484.45 1484.45 0 004.78 9.714l.03.073.003.009c.012.031.025.066.04.099a.424.424 0 00.058.096.18.18 0 00.093.06c.154.093.33.131.506.109l.013-.002.011-.005a.537.537 0 00.219-.197 2.25 2.25 0 00.072-.108l.007-.011c.026-.039.05-.075.073-.106z" fill="#fff" stroke="#fff" stroke-width=".2"/><path d="M24.331 10.901c.26-.23.515-.46.768-.687.395-.355.784-.706 1.18-1.05.095-.1.22-.158.352-.164a.38.38 0 01.21.084.425.425 0 01.134.192.456.456 0 01-.091.451c-.17.187-.35.362-.541.524l-.659.611c-.336.313-.671.626-1.01.931-.325.301-.532.272-.802-.077l-.731-.97a.487.487 0 010-.679c.171-.165.424-.116.622.126l.568.708z" fill="#fff"/><path d="M24.331 10.901c.26-.23.515-.46.768-.687.395-.355.784-.706 1.18-1.05.095-.1.22-.158.352-.164a.38.38 0 01.21.084.425.425 0 01.134.192.456.456 0 01-.091.451c-.17.187-.35.362-.541.524l-.659.611c-.336.313-.671.626-1.01.931-.325.301-.532.272-.802-.077l-.731-.97a.487.487 0 010-.679c.171-.165.424-.116.622.126l.568.708z" stroke="#fff"/></svg>