<svg width="30" height="30" fill="none" xmlns="http://www.w3.org/2000/svg"><g clip-path="url(#clip0_30_18647)" fill="#fff"><path d="M21.25 12.5h2.5v-1.313A3.125 3.125 0 0023.125 5h-1.25a.625.625 0 110-1.25h4.375v-2.5h-2.5V0h-2.5v1.313a3.125 3.125 0 00.625 6.187h1.25a.625.625 0 010 1.25H18.75v2.5h2.5v1.25z"/><path d="M28.75 13.75h-12.5V1.25A1.25 1.25 0 0015 0a15 15 0 1015 15 1.25 1.25 0 00-1.25-1.25zm-15-1.505l-7.281-6.37a12.459 12.459 0 017.281-3.313v9.683zm-8.928-4.49l8.35 7.306-7.846 7.845a12.467 12.467 0 01-.504-15.15zM15 27.5a12.441 12.441 0 01-7.906-2.826l8.424-8.424h11.92A12.518 12.518 0 0115 27.5z"/></g><defs><clipPath id="clip0_30_18647"><path fill="#fff" d="M0 0h30v30H0z"/></clipPath></defs></svg>