<svg width="30" height="30" fill="none" xmlns="http://www.w3.org/2000/svg"><g clip-path="url(#clip0_30_18690)" fill="#fff"><path d="M17.079 30H12.92a2.143 2.143 0 01-2.1-1.686l-.528-2.341a11.487 11.487 0 01-2.443-1.418l-2.277.719c-.978.301-2.04-.113-2.53-.985L.97 20.704a2.186 2.186 0 01.403-2.669l1.765-1.622a12.596 12.596 0 01-.002-2.825L1.38 11.973a2.182 2.182 0 01-.416-2.664l2.085-3.606c.485-.863 1.546-1.28 2.521-.977l2.28.719a11.514 11.514 0 012.443-1.418l.527-2.342A2.143 2.143 0 0112.921 0h4.158c1.015 0 1.879.694 2.101 1.686l.528 2.341a11.48 11.48 0 012.442 1.418l2.278-.719a2.17 2.17 0 012.53.985l2.072 3.585a2.185 2.185 0 01-.402 2.669l-1.765 1.623a12.58 12.58 0 010 2.825l1.757 1.614.008.008c.73.688.9 1.78.408 2.656l-2.085 3.607c-.486.862-1.547 1.28-2.52.976l-2.282-.72a11.515 11.515 0 01-2.443 1.417l-.527 2.343a2.14 2.14 0 01-2.1 1.686zm-9.036-7.426a.94.94 0 01.597.213 9.621 9.621 0 002.785 1.617.94.94 0 01.59.674l.636 2.825a.284.284 0 00.273.222h4.157a.285.285 0 00.273-.221l.636-2.825a.937.937 0 01.59-.674 9.646 9.646 0 002.785-1.616.934.934 0 01.879-.172l2.751.87c.13.04.27-.006.331-.117l2.085-3.605a.304.304 0 00-.06-.361l-2.11-1.94a.932.932 0 01-.292-.83c.082-.55.125-1.1.125-1.634 0-.534-.041-1.082-.125-1.634a.939.939 0 01.291-.83l2.115-1.945a.304.304 0 00.05-.367L25.333 6.64c-.068-.119-.203-.165-.34-.125l-2.748.868a.934.934 0 01-.879-.172 9.62 9.62 0 00-2.785-1.616.94.94 0 01-.59-.674l-.636-2.825a.292.292 0 00-.276-.221H12.92a.285.285 0 00-.272.221l-.636 2.827a.937.937 0 01-.59.673A9.618 9.618 0 008.64 7.213a.937.937 0 01-.879.17L5.01 6.516c-.13-.04-.27.006-.331.116l-2.085 3.604a.304.304 0 00.063.364l2.11 1.937a.93.93 0 01.29.83c-.082.55-.125 1.1-.125 1.634 0 .534.042 1.082.125 1.634a.938.938 0 01-.29.83L2.65 19.409a.304.304 0 00-.05.367l2.073 3.584a.28.28 0 00.34.125l2.747-.867a.913.913 0 01.283-.044z"/><path d="M14.064 20a.938.938 0 01-.915-1.148l1.875-8.125a.942.942 0 011.124-.703c.503.116.818.62.702 1.124l-1.875 8.125a.936.936 0 01-.911.727zm4.999-1.25a.936.936 0 01-.628-1.635L20.786 15l-2.351-2.115a.939.939 0 011.255-1.395l3.125 2.813a.941.941 0 010 1.394L19.69 18.51a.936.936 0 01-.628.24zm-8.125 0a.936.936 0 01-.628-.24l-3.125-2.812a.942.942 0 010-1.395l3.125-2.813a.939.939 0 011.255 1.395L9.214 15l2.351 2.115a.939.939 0 01-.627 1.635z"/></g><defs><clipPath id="clip0_30_18690"><path fill="#fff" d="M0 0h30v30H0z"/></clipPath></defs></svg>