<svg width="30" height="30" fill="none" xmlns="http://www.w3.org/2000/svg"><path d="M26.484 7.09V3.516H22.91A3.52 3.52 0 0019.395 0a3.52 3.52 0 00-3.516 3.516h-2.637C5.954 3.516 0 9.47 0 16.758 0 24.046 5.955 30 13.242 30c7.288 0 13.242-5.955 13.242-13.242V14.12A3.52 3.52 0 0030 10.605a3.52 3.52 0 00-3.516-3.515zm-14.12-1.783v4.06c1.059-.353 1.272-.52 1.757-.52.97 0 1.758.79 1.758 1.758a1.76 1.76 0 01-1.758 1.758c-.486 0-.701-.167-1.758-.52v4.036h-1.758a3.52 3.52 0 00-3.515-3.516 3.52 3.52 0 00-3.516 3.516H1.791C2.22 10.246 6.73 5.735 12.363 5.307zM1.79 17.637h4.061c-.354-1.061-.52-1.273-.52-1.758 0-.97.789-1.758 1.758-1.758.97 0 1.758.789 1.758 1.758 0 .485-.166.698-.52 1.758h4.035v1.758a3.52 3.52 0 00-3.515 3.515 3.52 3.52 0 003.515 3.516v1.783C6.73 27.78 2.22 23.27 1.791 17.637zm12.33 10.572v-4.06c-1.06.353-1.273.519-1.758.519a1.76 1.76 0 01-1.758-1.758c0-.97.789-1.758 1.758-1.758.486 0 .702.167 1.758.52v-4.035h1.758a3.52 3.52 0 003.516 3.515 3.52 3.52 0 003.515-3.516h1.783c-.428 5.634-4.939 10.145-10.572 10.573zm12.363-15.846c-.398 0-.7-.181-1.757-.544v4.06h-4.095c.355 1.06.52 1.273.52 1.758a1.76 1.76 0 01-1.758 1.758 1.76 1.76 0 01-1.757-1.758c0-.485.166-.698.52-1.758H14.12V14.12a3.52 3.52 0 003.516-3.516A3.52 3.52 0 0014.12 7.09V5.273h4.06c-.359-1.045-.544-1.359-.544-1.757 0-.97.788-1.758 1.758-1.758.969 0 1.757.788 1.757 1.758 0 .398-.181.7-.544 1.757h4.119v4.119c1.045-.359 1.36-.544 1.757-.544.97 0 1.758.788 1.758 1.757a1.76 1.76 0 01-1.758 1.758z" fill="#fff"/></svg>