<svg width="30" height="30" fill="none" xmlns="http://www.w3.org/2000/svg"><g clip-path="url(#clip0_30_18675)" fill="#fff"><path d="M29.965 2.24A2.332 2.332 0 0027.76.035C25.356-.096 20.65.032 16.151 2.36c-2.294 1.186-4.72 3.198-6.655 5.519l-.071.086-4.393.339a2.32 2.32 0 00-1.768 1.04L.267 13.876a1.6 1.6 0 00-.129 1.536 1.6 1.6 0 001.223.938l3.702.573-.039.216a2.33 2.33 0 00.654 2.027l5.156 5.156a2.336 2.336 0 002.027.653l.216-.038.573 3.702a1.607 1.607 0 002.473 1.094l4.534-2.997a2.32 2.32 0 001.04-1.768l.34-4.393.085-.07c2.321-1.937 4.333-4.362 5.519-6.656 2.327-4.5 2.455-9.205 2.324-11.61zM19.688 25.27l-4.337 2.866-.559-3.607c1.833-.539 3.646-1.402 5.374-2.558l-.222 2.862a.573.573 0 01-.256.436zm-7.611-2.19L6.92 17.922a.57.57 0 01-.163-.494c.153-.917.392-1.79.687-2.611l7.736 7.736c-.988.353-1.872.564-2.61.688a.57.57 0 01-.494-.163zm-6.91-13.024l2.862-.222c-1.156 1.728-2.02 3.54-2.558 5.374l-3.608-.559 2.868-4.337a.572.572 0 01.436-.256zm15.83 9.098a20.155 20.155 0 01-4.07 2.661l-8.743-8.743a20.504 20.504 0 012.662-4.068c1.791-2.148 4.02-4.001 6.113-5.084 4.129-2.136 8.48-2.25 10.706-2.13.294.016.528.25.544.545.122 2.226.007 6.577-2.13 10.706-1.082 2.094-2.935 4.322-5.083 6.113z"/><path d="M20.55 13.842a4.38 4.38 0 003.107-1.285 4.365 4.365 0 001.287-3.107 4.366 4.366 0 00-1.287-3.107 4.4 4.4 0 00-6.214 0 4.366 4.366 0 00-1.288 3.107c0 1.174.458 2.277 1.288 3.107a4.38 4.38 0 003.107 1.285zm-1.864-6.256a2.628 2.628 0 011.864-.771c.675 0 1.35.257 1.864.77a2.62 2.62 0 01.772 1.865 2.62 2.62 0 01-.772 1.865 2.64 2.64 0 01-3.729 0 2.62 2.62 0 01-.772-1.865c0-.704.274-1.366.773-1.864zM.897 24.723c.225 0 .45-.086.621-.258l2.87-2.87a.879.879 0 00-1.243-1.242l-2.87 2.87a.879.879 0 00.622 1.5zm6.12-1.74a.879.879 0 00-1.243 0L.257 28.498A.879.879 0 001.5 29.742l5.517-5.517a.879.879 0 000-1.242zm1.387 2.629l-2.87 2.87a.879.879 0 001.243 1.243l2.87-2.87a.879.879 0 00-1.243-1.243z"/></g><defs><clipPath id="clip0_30_18675"><path fill="#fff" d="M0 0h30v30H0z"/></clipPath></defs></svg>