<svg width="30" height="30" fill="none" xmlns="http://www.w3.org/2000/svg"><path d="M27.063 23.921A14.888 14.888 0 0030 15c0-4.007-1.56-7.773-4.393-10.607A14.902 14.902 0 0015 0v1.758c3.537 0 6.863 1.377 9.364 3.878A13.155 13.155 0 0128.242 15c0 2.857-.9 5.576-2.563 7.834l-.201-2.303-1.752.153.46 5.253 5.254-.46-.154-1.75-2.224.194zM1.758 15c0-2.857.899-5.576 2.563-7.834l.201 2.303 1.751-.153-.46-5.253-5.253.46.154 1.75 2.223-.194A14.888 14.888 0 000 15c0 4.007 1.56 7.774 4.393 10.607A14.902 14.902 0 0015 30v-1.758a13.155 13.155 0 01-9.364-3.878A13.155 13.155 0 011.758 15zM15 17.695a2.695 2.695 0 100-5.39 2.695 2.695 0 000 5.39z" fill="#fff"/><path d="M23.143 11.43l-1.724.56a7.128 7.128 0 00-1.575-2.162l1.068-1.47-1.422-1.033-1.067 1.468a7.037 7.037 0 00-2.544-.828V6.152h-1.758v1.813a7.037 7.037 0 00-2.544.828l-1.066-1.468L9.089 8.36l1.067 1.47a7.125 7.125 0 00-1.574 2.161l-1.725-.56-.543 1.672 1.724.56a7.1 7.1 0 000 2.676l-1.724.56.543 1.672 1.725-.56c.385.818.922 1.55 1.574 2.162l-1.067 1.47 1.422 1.033 1.066-1.468a7.037 7.037 0 002.544.828v1.813h1.758v-1.813a7.038 7.038 0 002.544-.828l1.067 1.468 1.422-1.034-1.068-1.47a7.127 7.127 0 001.575-2.161l1.724.56.543-1.672-1.723-.56a7.095 7.095 0 000-2.676l1.723-.56-.543-1.672zM19.453 15A4.458 4.458 0 0115 19.453 4.458 4.458 0 0110.547 15 4.458 4.458 0 0115 10.547 4.458 4.458 0 0119.453 15z" fill="#fff"/></svg>