<svg width="30" height="30" fill="none" xmlns="http://www.w3.org/2000/svg"><path d="M30 8.824l-3.309-4.412L30 0H18.53v15.882h-2.648v1.765h-5.294v1.765H5.294v1.765H0V30h22.941V15.882h-2.647V8.824H30zM12.353 19.412h3.53v8.823h-3.53v-8.823zm-5.294 1.765h3.53v7.058h-3.53v-7.058zM1.765 22.94h3.53v5.294h-3.53V22.94zm19.412 5.294h-3.53V17.647h3.53v10.588zm-.883-26.47h6.177l-1.986 2.647 1.986 2.647h-6.177V1.765z" fill="#fff"/><path d="M8.943 10.544l1.868 1.867L15 8.284v1.712h1.765V5.294h-4.702V7.06h1.666L10.82 9.925 8.943 8.049l-7.506 7.506 1.248 1.248 6.258-6.259z" fill="#fff"/></svg>